<?xml version="1.0" encoding="UTF-8"?>
<svg id="Layer_1" data-name="Layer 1" xmlns="http://www.w3.org/2000/svg" version="1.1" xmlns:xlink="http://www.w3.org/1999/xlink" viewBox="0 0 143 174">
  <defs>
    <style>
      .cls-1 {
        fill: #d1212e;
      }

      .cls-1, .cls-2, .cls-3 {
        stroke-width: 0px;
      }

      .cls-1, .cls-3 {
        fill-rule: evenodd;
      }

      .cls-4 {
        clip-path: url(#clippath-2);
      }

      .cls-2 {
        fill: none;
      }

      .cls-5 {
        clip-path: url(#clippath-1);
      }

      .cls-6 {
        clip-path: url(#clippath);
      }

      .cls-7 {
        clip-path: url(#clippath-3);
      }

      .cls-3 {
        fill: #143151;
      }
    </style>
    <clipPath id="clippath">
      <rect class="cls-2" x="119" y="18.7" width="11.9" height="13.3"/>
    </clipPath>
    <clipPath id="clippath-1">
      <rect class="cls-2" x="111" y="9.1" width="6.7" height="5.5"/>
    </clipPath>
    <clipPath id="clippath-2">
      <rect class="cls-2" x="15.1" y="141.3" width="13.2" height="13.3"/>
    </clipPath>
    <clipPath id="clippath-3">
      <rect class="cls-2" x="28.3" y="158.7" width="6.7" height="6.5"/>
    </clipPath>
  </defs>
  <path class="cls-3" d="M96.9,39.8h-4.5v-4.1c-1.6-.8-3.4-1.3-5.3-1.3-6.4,0-11.7,5.3-11.7,11.7v81.9c0,6.5,5.3,11.7,11.7,11.7s11.3-4.8,11.7-10.9c1.4.5,2.9.7,4.4.7,7.4,0,13.5-6.1,13.5-13.5s-.2-2.7-.6-3.9c7.2-2.7,12.4-9.6,12.4-17.8s-1.7-9-4.5-12.4c1.4-2.2,2.2-4.9,2.2-7.7,0-6.5-4.3-12-10.2-13.8h-11.1v-14.3h4.5c-4.7-6.7-10.5-6.4-12.5-6.4ZM96.1,66.8h-7.7v7.8h7.7v-7.8ZM111.1,65.5h-7.7v7.8h7.7v-7.8ZM99.2,57.6h-4.9v4.9h4.9v-4.9ZM91.7,50.9h-4.9v4.9h4.9v-4.9ZM101.8,42.3h-4.9v4.9h4.9v-4.9Z"/>
  <g class="cls-6">
    <path class="cls-3" d="M131.1,19.6h-11.9v12h11.9v-12Z"/>
  </g>
  <path class="cls-3" d="M114.5,29.2h-7.5v7.5h7.5v-7.5Z"/>
  <path class="cls-3" d="M128.7,47.6h-7.5v7.6h7.5v-7.6Z"/>
  <g class="cls-5">
    <path class="cls-3" d="M116.6,9.2h-5.3v5.4h5.3v-5.4Z"/>
  </g>
  <path class="cls-3" d="M105.7,16.1h-6.2v6.2h6.2v-6.2Z"/>
  <path class="cls-3" d="M124.3,36.7h-5.3v5.3h5.3v-5.3Z"/>
  <path class="cls-3" d="M99.3,30.9h-4.1v4.1h4.1v-4.1Z"/>
  <path class="cls-3" d="M117,48.5h-10.1v10.2h10.1v-10.2Z"/>
  <path class="cls-1" d="M49.3,134.4h4.5v4.1c1.6.8,3.4,1.3,5.3,1.3,6.4,0,11.7-5.3,11.7-11.7V46.2c0-6.5-5.3-11.7-11.7-11.7s-11.3,4.8-11.7,10.9c-1.4-.5-2.9-.7-4.4-.7-7.4,0-13.5,6.1-13.5,13.5s.2,2.7.6,3.9c-7.2,2.7-12.4,9.6-12.4,17.8s1.7,9,4.6,12.3c-1.4,2.2-2.2,4.9-2.2,7.7,0,6.5,4.3,12,10.2,13.8h11.1v14.3h-4.5c4.7,6.7,10.5,6.4,12.5,6.4ZM50.1,107.4h7.7v-7.8h-7.7v7.8ZM35.1,108.8h7.7v-7.8h-7.7v7.8h0ZM47,116.7h4.9v-4.9h-4.9v4.9ZM54.5,123.3h4.9v-4.9h-4.9v4.9ZM44.4,131.9h4.9v-4.9h-4.9v4.9Z"/>
  <g class="cls-4">
    <path class="cls-1" d="M27,142.7h-11.9v12h11.9v-12Z"/>
  </g>
  <path class="cls-1" d="M39.2,137.5h-7.5v7.6h7.5v-7.6Z"/>
  <path class="cls-1" d="M25,119.1h-7.5v7.5h7.5v-7.5Z"/>
  <g class="cls-7">
    <path class="cls-1" d="M34.9,159.7h-5.3v5.4h5.3v-5.4Z"/>
  </g>
  <path class="cls-1" d="M46.7,152h-6.2v6.2h6.2v-6.2Z"/>
  <path class="cls-1" d="M27.2,132.2h-5.3v5.3h5.3v-5.3Z"/>
  <path class="cls-1" d="M50.9,139.2h-4v4.1h4v-4.1Z"/>
  <path class="cls-1" d="M39.3,115.5h-10.1v10.2h10.1v-10.2Z"/>
</svg>